<svg width="50" height="50" viewBox="0 0 50 50" fill="none" xmlns="http://www.w3.org/2000/svg">
<circle cx="25" cy="25" r="25" fill="#C8CACB"/>
<path d="M26.98 19.2C27.2333 19.2 27.4533 19.2733 27.64 19.42C27.84 19.5667 27.9733 19.76 28.04 20L32.04 33H28.92L27.9 29.34H23.14L22.14 33H19.02L23.02 20C23.0867 19.76 23.2133 19.5667 23.4 19.42C23.6 19.2733 23.8267 19.2 24.08 19.2H26.98ZM24.96 22.84L23.78 27.06H27.26L26.1 22.84C26.0333 22.6267 25.9733 22.4067 25.92 22.18C25.88 21.94 25.84 21.7133 25.8 21.5H25.26C25.22 21.7133 25.1733 21.94 25.12 22.18C25.0667 22.4067 25.0133 22.6267 24.96 22.84Z" fill="#070C11"/>
</svg>
